<mxfile host="app.diagrams.net" modified="2024-05-31T19:53:58.005Z" agent="Mozilla/5.0 (Windows NT 10.0; Win64; x64) AppleWebKit/537.36 (KHTML, like Gecko) Chrome/125.0.0.0 Safari/537.36 Edg/125.0.0.0" etag="U5TYdkoMgTn-uiUqP5sb" version="24.4.13" type="device">
  <diagram name="Página-1" id="yMp2t9H92Ch_WWLpOHS4">
    <mxGraphModel dx="1109" dy="666" grid="1" gridSize="10" guides="1" tooltips="1" connect="1" arrows="1" fold="1" page="1" pageScale="1" pageWidth="827" pageHeight="1169" math="0" shadow="0">
      <root>
        <mxCell id="0" />
        <mxCell id="1" parent="0" />
        <mxCell id="OdpiFEJworuUt5zoWP9B-1" value="" style="whiteSpace=wrap;html=1;aspect=fixed;" vertex="1" parent="1">
          <mxGeometry x="180" y="200" width="270" height="270" as="geometry" />
        </mxCell>
        <mxCell id="OdpiFEJworuUt5zoWP9B-2" value="Resseñas de los coches de este 2024" style="rounded=0;whiteSpace=wrap;html=1;" vertex="1" parent="1">
          <mxGeometry x="180" y="200" width="270" height="60" as="geometry" />
        </mxCell>
        <mxCell id="OdpiFEJworuUt5zoWP9B-3" value="footer" style="rounded=0;whiteSpace=wrap;html=1;" vertex="1" parent="1">
          <mxGeometry x="180" y="420" width="270" height="60" as="geometry" />
        </mxCell>
        <mxCell id="OdpiFEJworuUt5zoWP9B-4" value="lorem" style="rounded=0;whiteSpace=wrap;html=1;" vertex="1" parent="1">
          <mxGeometry x="200" y="290" width="50" height="40" as="geometry" />
        </mxCell>
        <mxCell id="OdpiFEJworuUt5zoWP9B-5" value="lorem" style="rounded=0;whiteSpace=wrap;html=1;" vertex="1" parent="1">
          <mxGeometry x="260" y="290" width="50" height="40" as="geometry" />
        </mxCell>
        <mxCell id="OdpiFEJworuUt5zoWP9B-6" value="lorem" style="rounded=0;whiteSpace=wrap;html=1;" vertex="1" parent="1">
          <mxGeometry x="320" y="290" width="50" height="40" as="geometry" />
        </mxCell>
        <mxCell id="OdpiFEJworuUt5zoWP9B-7" value="lorem" style="rounded=0;whiteSpace=wrap;html=1;" vertex="1" parent="1">
          <mxGeometry x="380" y="290" width="50" height="40" as="geometry" />
        </mxCell>
        <mxCell id="OdpiFEJworuUt5zoWP9B-8" value="lorem" style="rounded=0;whiteSpace=wrap;html=1;" vertex="1" parent="1">
          <mxGeometry x="200" y="340" width="50" height="40" as="geometry" />
        </mxCell>
        <mxCell id="OdpiFEJworuUt5zoWP9B-9" value="lorem" style="rounded=0;whiteSpace=wrap;html=1;" vertex="1" parent="1">
          <mxGeometry x="260" y="340" width="50" height="40" as="geometry" />
        </mxCell>
        <mxCell id="OdpiFEJworuUt5zoWP9B-10" value="lorem" style="rounded=0;whiteSpace=wrap;html=1;" vertex="1" parent="1">
          <mxGeometry x="320" y="340" width="50" height="40" as="geometry" />
        </mxCell>
        <mxCell id="OdpiFEJworuUt5zoWP9B-11" value="lorem" style="rounded=0;whiteSpace=wrap;html=1;" vertex="1" parent="1">
          <mxGeometry x="380" y="340" width="50" height="40" as="geometry" />
        </mxCell>
      </root>
    </mxGraphModel>
  </diagram>
</mxfile>
